<svg width="16" height="16" viewBox="0 0 16 16" fill="none" xmlns="http://www.w3.org/2000/svg">
<path d="M4.57293 0.615385C4.57293 0.452174 4.50921 0.295649 4.39579 0.180242C4.28237 0.064835 4.12855 0 3.96815 0C3.80775 0 3.65392 0.064835 3.54051 0.180242C3.42709 0.295649 3.36337 0.452174 3.36337 0.615385V1.91179C2.2022 2.00615 1.44098 2.23754 0.881363 2.80779C0.320935 3.37723 0.093539 4.15262 0 5.33333H16C15.9065 4.15179 15.6791 3.37723 15.1186 2.80779C14.559 2.23754 13.797 2.00615 12.6366 1.91097V0.615385C12.6366 0.452174 12.5729 0.295649 12.4595 0.180242C12.3461 0.064835 12.1922 0 12.0319 0C11.8715 0 11.7176 0.064835 11.6042 0.180242C11.4908 0.295649 11.4271 0.452174 11.4271 0.615385V1.85682C10.8908 1.84615 10.2893 1.84615 9.61274 1.84615H6.38726C5.71071 1.84615 5.10916 1.84615 4.57293 1.85682V0.615385Z" fill="url(#paint0_radial_826_74)"/>
<path fill-rule="evenodd" clip-rule="evenodd" d="M0 8.01815C0 7.34847 8.9407e-09 6.75302 0.0104 6.22223H15.9896C16 6.75302 16 7.34847 16 8.01815V9.61452C16 12.6245 16 14.1299 15.0624 15.0645C14.1248 15.9992 12.6168 16 9.6 16H6.4C3.3832 16 1.8744 16 0.9376 15.0645C0.000799942 14.1291 0 12.6245 0 9.61452V8.01815ZM12 9.61452C12.2122 9.61452 12.4157 9.53042 12.5657 9.38074C12.7157 9.23105 12.8 9.02803 12.8 8.81633C12.8 8.60464 12.7157 8.40162 12.5657 8.25193C12.4157 8.10224 12.2122 8.01815 12 8.01815C11.7878 8.01815 11.5843 8.10224 11.4343 8.25193C11.2843 8.40162 11.2 8.60464 11.2 8.81633C11.2 9.02803 11.2843 9.23105 11.4343 9.38074C11.5843 9.53042 11.7878 9.61452 12 9.61452ZM12 12.8073C12.2122 12.8073 12.4157 12.7232 12.5657 12.5735C12.7157 12.4238 12.8 12.2208 12.8 12.0091C12.8 11.7974 12.7157 11.5944 12.5657 11.4447C12.4157 11.295 12.2122 11.2109 12 11.2109C11.7878 11.2109 11.5843 11.295 11.4343 11.4447C11.2843 11.5944 11.2 11.7974 11.2 12.0091C11.2 12.2208 11.2843 12.4238 11.4343 12.5735C11.5843 12.7232 11.7878 12.8073 12 12.8073ZM8.8 8.81633C8.8 9.02803 8.71571 9.23105 8.56569 9.38074C8.41566 9.53042 8.21217 9.61452 8 9.61452C7.78783 9.61452 7.58434 9.53042 7.43431 9.38074C7.28429 9.23105 7.2 9.02803 7.2 8.81633C7.2 8.60464 7.28429 8.40162 7.43431 8.25193C7.58434 8.10224 7.78783 8.01815 8 8.01815C8.21217 8.01815 8.41566 8.10224 8.56569 8.25193C8.71571 8.40162 8.8 8.60464 8.8 8.81633ZM8.8 12.0091C8.8 12.2208 8.71571 12.4238 8.56569 12.5735C8.41566 12.7232 8.21217 12.8073 8 12.8073C7.78783 12.8073 7.58434 12.7232 7.43431 12.5735C7.28429 12.4238 7.2 12.2208 7.2 12.0091C7.2 11.7974 7.28429 11.5944 7.43431 11.4447C7.58434 11.295 7.78783 11.2109 8 11.2109C8.21217 11.2109 8.41566 11.295 8.56569 11.4447C8.71571 11.5944 8.8 11.7974 8.8 12.0091ZM4 9.61452C4.21217 9.61452 4.41566 9.53042 4.56569 9.38074C4.71571 9.23105 4.8 9.02803 4.8 8.81633C4.8 8.60464 4.71571 8.40162 4.56569 8.25193C4.41566 8.10224 4.21217 8.01815 4 8.01815C3.78783 8.01815 3.58434 8.10224 3.43431 8.25193C3.28429 8.40162 3.2 8.60464 3.2 8.81633C3.2 9.02803 3.28429 9.23105 3.43431 9.38074C3.58434 9.53042 3.78783 9.61452 4 9.61452ZM4 12.8073C4.21217 12.8073 4.41566 12.7232 4.56569 12.5735C4.71571 12.4238 4.8 12.2208 4.8 12.0091C4.8 11.7974 4.71571 11.5944 4.56569 11.4447C4.41566 11.295 4.21217 11.2109 4 11.2109C3.78783 11.2109 3.58434 11.295 3.43431 11.4447C3.28429 11.5944 3.2 11.7974 3.2 12.0091C3.2 12.2208 3.28429 12.4238 3.43431 12.5735C3.58434 12.7232 3.78783 12.8073 4 12.8073Z" fill="url(#paint1_radial_826_74)"/>
<defs>
<radialGradient id="paint0_radial_826_74" cx="0" cy="0" r="1" gradientTransform="matrix(40.1672 9.26667 -1.58539 13.3891 8.21493 0.3)" gradientUnits="userSpaceOnUse">
<stop stop-color="#FFB000"/>
<stop offset="1" stop-color="#FFD069"/>
</radialGradient>
<radialGradient id="paint1_radial_826_74" cx="0" cy="0" r="1" gradientTransform="matrix(40.1672 16.9889 -1.58539 24.5466 8.21493 6.77223)" gradientUnits="userSpaceOnUse">
<stop stop-color="#FFB000"/>
<stop offset="1" stop-color="#FFD069"/>
</radialGradient>
</defs>
</svg>
