<svg width="16" height="17" viewBox="0 0 16 17" fill="none" xmlns="http://www.w3.org/2000/svg">
<path d="M1.59999 12.7999H3.19998V16.0647L7.28075 12.7999H11.1999C12.0823 12.7999 12.7999 12.0823 12.7999 11.1999V4.79994C12.7999 3.91755 12.0823 3.19995 11.1999 3.19995H1.59999C0.717595 3.19995 0 3.91755 0 4.79994V11.1999C0 12.0823 0.717595 12.7999 1.59999 12.7999Z" fill="#FFB000"/>
<path d="M14.4001 0H4.80018C3.91779 0 3.2002 0.717595 3.2002 1.59999H12.8001C13.6825 1.59999 14.4001 2.31758 14.4001 3.19998V9.59993C15.2825 9.59993 16.0001 8.88234 16.0001 7.99994V1.59999C16.0001 0.717595 15.2825 0 14.4001 0Z" fill="#FFB000"/>
</svg>
