<svg width="12" height="16" viewBox="0 0 12 16" fill="none" xmlns="http://www.w3.org/2000/svg">
<path d="M9.75 0C10.3467 0 10.919 0.252855 11.341 0.702938C11.7629 1.15302 12 1.76347 12 2.39998V15.1999C12 15.3447 11.9632 15.4868 11.8934 15.6111C11.8236 15.7353 11.7235 15.8371 11.6038 15.9054C11.4841 15.9737 11.3492 16.0061 11.2136 15.9991C11.078 15.992 10.9467 15.9459 10.8337 15.8655L9.09525 14.6295L8.03025 15.7655C7.90111 15.9032 7.72928 15.986 7.54701 15.9982C7.36474 16.0104 7.18455 15.9513 7.04025 15.8319L6.96975 15.7655L6 14.7319L5.03025 15.7655C4.90111 15.9032 4.72928 15.986 4.54701 15.9982C4.36474 16.0104 4.18455 15.9513 4.04025 15.8319L3.96975 15.7655L2.904 14.6295L1.16625 15.8655L1.152 15.8751L1.1115 15.8991L1.0905 15.9127L1.05 15.9311L1.0125 15.9495L0.97575 15.9615L0.93075 15.9767L0.89175 15.9839L0.849 15.9927L0.786 15.9975L0.7665 15.9999H0.75L0.71325 15.9975H0.684L0.67425 15.9951H0.66225L0.6315 15.9887L0.603 15.9847L0.59175 15.9807L0.57825 15.9791L0.55275 15.9703L0.52275 15.9623L0.5085 15.9567L0.49725 15.9535L0.4755 15.9431L0.4455 15.9311L0.42975 15.9223L0.42 15.9183L0.399 15.9055L0.372 15.8911L0.3615 15.8831L0.348 15.8751L0.3195 15.8535L0.303 15.8423L0.2955 15.8351L0.2805 15.8239L0.24675 15.7911L0.23775 15.7847L0.21975 15.7655L0.1935 15.7343L0.1785 15.7183L0.17325 15.7095L0.165 15.6999L0.141 15.6639L0.126 15.6439L0.117 15.6287L0.0944999 15.5855L0.0817502 15.5631L0.0645 15.5199L0.0472502 15.4799C0.0372272 15.4516 0.0287133 15.4228 0.0217499 15.3935L0.01425 15.3479L0.00674987 15.3055L0 15.1999V2.39998C0 1.76347 0.237053 1.15302 0.65901 0.702938C1.08097 0.252855 1.65326 0 2.25 0H9.75ZM8.25 9.59993H6.75C6.55109 9.59993 6.36032 9.68421 6.21967 9.83424C6.07902 9.98427 6 10.1877 6 10.3999C6 10.6121 6.07902 10.8156 6.21967 10.9656C6.36032 11.1156 6.55109 11.1999 6.75 11.1999H8.25C8.44891 11.1999 8.63968 11.1156 8.78033 10.9656C8.92098 10.8156 9 10.6121 9 10.3999C9 10.1877 8.92098 9.98427 8.78033 9.83424C8.63968 9.68421 8.44891 9.59993 8.25 9.59993ZM8.25 6.39995H3.75C3.55109 6.39995 3.36032 6.48424 3.21967 6.63426C3.07902 6.78429 3 6.98777 3 7.19995C3 7.41212 3.07902 7.6156 3.21967 7.76563C3.36032 7.91566 3.55109 7.99994 3.75 7.99994H8.25C8.44891 7.99994 8.63968 7.91566 8.78033 7.76563C8.92098 7.6156 9 7.41212 9 7.19995C9 6.98777 8.92098 6.78429 8.78033 6.63426C8.63968 6.48424 8.44891 6.39995 8.25 6.39995ZM8.25 3.19998H3.75C3.55109 3.19998 3.36032 3.28426 3.21967 3.43429C3.07902 3.58432 3 3.7878 3 3.99997C3 4.21214 3.07902 4.41562 3.21967 4.56565C3.36032 4.71568 3.55109 4.79996 3.75 4.79996H8.25C8.44891 4.79996 8.63968 4.71568 8.78033 4.56565C8.92098 4.41562 9 4.21214 9 3.99997C9 3.7878 8.92098 3.58432 8.78033 3.43429C8.63968 3.28426 8.44891 3.19998 8.25 3.19998Z" fill="url(#paint0_radial_641_15040)"/>
<defs>
<radialGradient id="paint0_radial_641_15040" cx="0" cy="0" r="1" gradientTransform="matrix(-6 16 -12 -8 12 0)" gradientUnits="userSpaceOnUse">
<stop stop-color="#FFD26D"/>
<stop offset="1" stop-color="#FFB81A"/>
</radialGradient>
</defs>
</svg>
