<svg width="11" height="15" viewBox="0 0 11 15" fill="none" xmlns="http://www.w3.org/2000/svg">
<path d="M1.875 5.57759H8.625M1.875 5.57759C1.57663 5.57759 1.29048 5.67931 1.0795 5.86038C0.868526 6.04145 0.75 6.28703 0.75 6.5431V11.3707C0.75 11.6268 0.868526 11.8723 1.0795 12.0534C1.29048 12.2345 1.57663 12.3362 1.875 12.3362H8.625C8.92337 12.3362 9.20952 12.2345 9.42049 12.0534C9.63147 11.8723 9.75 11.6268 9.75 11.3707V6.5431C9.75 6.28703 9.63147 6.04145 9.42049 5.86038C9.20952 5.67931 8.92337 5.57759 8.625 5.57759M1.875 5.57759V1.71552C1.875 1.45945 1.99353 1.21386 2.20451 1.03279C2.41548 0.851724 2.70163 0.75 3 0.75H7.5C7.79837 0.75 8.08452 0.851724 8.29549 1.03279C8.50647 1.21386 8.625 1.45945 8.625 1.71552V5.57759M6.9375 2.68103H3.5625M3 12.819V14.75M7.5 12.819V14.75" stroke="#606574" stroke-width="1.5"/>
</svg>
