<svg width="18" height="17" viewBox="0 0 18 17" fill="none" xmlns="http://www.w3.org/2000/svg">
<mask id="mask0_826_1073" style="mask-type:luminance" maskUnits="userSpaceOnUse" x="0" y="0" width="18" height="18">
<path fill-rule="evenodd" clip-rule="evenodd" d="M9 16.0004C13.4182 16.0004 17 12.3289 17 9.82393C17 7.31893 13.4182 3.64746 9 3.64746C4.58178 3.64746 1 7.32158 1 9.82393C1 12.3263 4.58178 16.0004 9 16.0004Z" fill="white" stroke="white" stroke-width="2" stroke-linejoin="round"/>
<path d="M9.00035 12.4709C9.70759 12.4709 10.3859 12.192 10.886 11.6956C11.3861 11.1992 11.667 10.5259 11.667 9.82382C11.667 9.12177 11.3861 8.44848 10.886 7.95206C10.3859 7.45564 9.70759 7.17676 9.00035 7.17676C8.2931 7.17676 7.61482 7.45564 7.11473 7.95206C6.61463 8.44848 6.33368 9.12177 6.33368 9.82382C6.33368 10.5259 6.61463 11.1992 7.11473 11.6956C7.61482 12.192 8.2931 12.4709 9.00035 12.4709Z" fill="black" stroke="black" stroke-width="2" stroke-linejoin="round"/>
<path d="M4.22833 2.88206L5.38122 4.47912M14.1666 3.07794L13.0132 4.675M9.00389 1V3.64706" stroke="white" stroke-width="2" stroke-linecap="round"/>
</mask>
<g mask="url(#mask0_826_1073)">
<path d="M-1.66681 -2.08789H19.6665V19.0886H-1.66681V-2.08789Z" fill="url(#paint0_radial_826_1073)"/>
</g>
<defs>
<radialGradient id="paint0_radial_826_1073" cx="0" cy="0" r="1" gradientTransform="matrix(-10.6667 21.1765 -21.3333 -10.5882 19.6665 -2.08789)" gradientUnits="userSpaceOnUse">
<stop stop-color="#FFD26D"/>
<stop offset="1" stop-color="#FFB81A"/>
</radialGradient>
</defs>
</svg>
