<svg width="24" height="22" viewBox="0 0 24 22" fill="none" xmlns="http://www.w3.org/2000/svg">
<path d="M21.1438 0.000102454H2.86815C2.11593 -0.0062307 1.39182 0.282235 0.854312 0.802355C0.316805 1.32248 0.00969126 2.03188 0.000196518 2.77528V5.28955C-0.00693273 5.89031 0.18008 6.47764 0.534025 6.96611C0.88797 7.45457 1.39038 7.81866 1.96816 8.00543V17.3272C1.96895 17.9442 2.09463 18.5548 2.33781 19.123C2.58099 19.6913 2.93675 20.2057 3.38414 20.6361C4.28898 21.5168 5.51011 22.0072 6.78008 21.9999H17.2319C18.5019 22.0072 19.723 21.5168 20.6278 20.6361C21.0752 20.2057 21.431 19.6913 21.6742 19.123C21.9173 18.5548 22.043 17.9442 22.0438 17.3272V8.00543C22.6096 7.81978 23.1024 7.46379 23.4532 6.98738C23.8039 6.51097 23.9951 5.93802 23.9998 5.34885V2.83458C24.0046 2.46204 23.9341 2.09229 23.7924 1.74703C23.6507 1.40177 23.4407 1.08793 23.1747 0.823932C22.9087 0.55993 22.5921 0.351073 22.2433 0.209608C21.8946 0.068142 21.5208 -0.00308524 21.1438 0.000102454ZM16.2479 12.6189L12.168 16.6512C11.8529 16.9589 11.429 17.1334 10.986 17.1374C10.7654 17.136 10.5473 17.0917 10.344 17.007C10.1388 16.9253 9.95438 16.7997 9.80402 16.6393L7.77606 14.6469C7.68763 14.5654 7.61671 14.4673 7.56752 14.3581C7.51834 14.249 7.49189 14.1312 7.48975 14.0118C7.48762 13.8924 7.50985 13.7738 7.55512 13.663C7.60038 13.5522 7.66775 13.4516 7.75321 13.3672C7.83867 13.2827 7.94047 13.2161 8.05254 13.1714C8.1646 13.1266 8.28463 13.1047 8.40547 13.1068C8.52631 13.1089 8.64549 13.135 8.75589 13.1836C8.86628 13.2323 8.96564 13.3024 9.04804 13.3897L10.992 15.311L14.9759 11.3617C15.0583 11.2744 15.1577 11.2043 15.2681 11.1557C15.3785 11.1071 15.4976 11.0809 15.6185 11.0788C15.7393 11.0767 15.8593 11.0987 15.9714 11.1434C16.0835 11.1882 16.1853 11.2547 16.2707 11.3392C16.3562 11.4237 16.4235 11.5243 16.4688 11.635C16.5141 11.7458 16.5363 11.8644 16.5342 11.9838C16.532 12.1032 16.5056 12.221 16.4564 12.3301C16.4072 12.4392 16.3363 12.5374 16.2479 12.6189ZM22.2478 5.28955C22.2463 5.4245 22.2176 5.55782 22.1635 5.68176C22.1095 5.8057 22.0311 5.9178 21.9328 6.01157C21.8346 6.10533 21.7185 6.1789 21.5913 6.228C21.4641 6.27711 21.3283 6.30077 21.1918 6.29762H2.86815C2.73104 6.30078 2.59465 6.2772 2.46676 6.22823C2.33888 6.17927 2.22201 6.10589 2.12283 6.01227C2.02365 5.91866 1.94411 5.80664 1.88874 5.68264C1.83338 5.55863 1.80328 5.42506 1.80016 5.28955V2.77528C1.80326 2.6403 1.83343 2.50727 1.88895 2.38391C1.94446 2.26055 2.0242 2.1493 2.12355 2.05663C2.22289 1.96396 2.33987 1.89171 2.46769 1.84406C2.5955 1.79641 2.73162 1.77432 2.86815 1.77906H21.1438C21.2798 1.77431 21.4153 1.79648 21.5424 1.84426C21.6696 1.89205 21.7858 1.96449 21.8842 2.05731C21.9826 2.15014 22.0612 2.26148 22.1154 2.38478C22.1696 2.50808 22.1983 2.64085 22.1998 2.77528L22.2478 5.28955Z" fill="url(#paint0_radial_826_50)"/>
<defs>
<radialGradient id="paint0_radial_826_50" cx="0" cy="0" r="1" gradientTransform="matrix(-12 22 -24 -11 24 0)" gradientUnits="userSpaceOnUse">
<stop stop-color="#FFD26D"/>
<stop offset="1" stop-color="#FFB81A"/>
</radialGradient>
</defs>
</svg>
