<svg width="15" height="18" viewBox="0 0 15 18" fill="none" xmlns="http://www.w3.org/2000/svg">
<path d="M11.7504 16.547C12.6868 16.4605 13.4098 15.7622 13.4925 14.8254C13.5965 13.6551 13.7024 11.7294 13.7024 8.75C13.7024 5.77057 13.5961 3.84486 13.4929 2.67457C13.4098 1.73819 12.6868 1.03952 11.7504 0.953048C10.6776 0.854 9.10505 0.75 7.22619 0.75C5.34733 0.75 3.77552 0.854 2.702 0.953048C1.76562 1.03952 1.04257 1.73781 0.959524 2.67457C0.856667 3.84486 0.75 5.77057 0.75 8.75C0.75 11.7294 0.856286 13.6551 0.959524 14.8254C1.04257 15.7618 1.76562 16.4605 2.702 16.547C3.77476 16.646 5.34733 16.75 7.22619 16.75C9.10505 16.75 10.6772 16.646 11.7504 16.547Z" stroke="#606574" stroke-width="1.5" stroke-linecap="round" stroke-linejoin="round"/>
<path d="M6.73912 5.40218C6.80288 5.33785 6.87874 5.28679 6.96234 5.25195C7.04593 5.2171 7.1356 5.19916 7.22617 5.19916C7.31674 5.19916 7.40641 5.2171 7.49 5.25195C7.5736 5.28679 7.64946 5.33785 7.71322 5.40218C8.30217 5.98504 9.30141 7.05818 10.0027 8.25094C10.1841 8.55952 10.1841 8.94047 10.0027 9.24904C9.30103 10.4414 8.30217 11.5146 7.71322 12.0978C7.44046 12.3683 7.01227 12.3683 6.73912 12.0978C6.15017 11.5146 5.15131 10.4418 4.4496 9.24904C4.36048 9.09783 4.31348 8.92551 4.31348 8.74999C4.31348 8.57447 4.36048 8.40216 4.4496 8.25094C5.15131 7.05818 6.15055 5.98542 6.73912 5.40218Z" stroke="#606574" stroke-width="1.5" stroke-linecap="round" stroke-linejoin="round"/>
<path d="M3.4165 3.41667V4.17858M11.0356 14.0833V13.3214" stroke="#606574" stroke-width="1.5" stroke-linecap="round" stroke-linejoin="round"/>
</svg>
