<svg width="12" height="16" viewBox="0 0 12 16" fill="none" xmlns="http://www.w3.org/2000/svg">
<path d="M6.75 5.6H10.875L6.75 1.2V5.6ZM1.5 0H7.5L12 4.8V14.4C12 14.8243 11.842 15.2313 11.5607 15.5314C11.2794 15.8314 10.8978 16 10.5 16H1.5C1.10218 16 0.720644 15.8314 0.43934 15.5314C0.158035 15.2313 0 14.8243 0 14.4V1.6C0 1.17565 0.158035 0.768687 0.43934 0.468629C0.720644 0.168571 1.10218 0 1.5 0ZM5.1975 8.352C5.505 9.072 5.895 9.664 6.345 10.072L6.6525 10.328C6 10.456 5.1 10.68 4.1475 11.072L4.065 11.104L4.44 10.272C4.7775 9.576 5.025 8.944 5.1975 8.352ZM10.0575 11.4C10.1925 11.256 10.26 11.072 10.2675 10.872C10.29 10.712 10.2525 10.56 10.1775 10.432C9.96 10.056 9.3975 9.88 8.4675 9.88L7.5 9.936L6.8475 9.472C6.375 9.056 5.9475 8.328 5.6475 7.424L5.6775 7.312C5.925 6.248 6.1575 4.96 5.6625 4.432C5.60195 4.36929 5.53033 4.32002 5.4518 4.28707C5.37327 4.25411 5.28938 4.23811 5.205 4.24H5.025C4.7475 4.24 4.5 4.552 4.4325 4.856C4.155 5.92 4.32 6.504 4.5975 7.472V7.48C4.41 8.184 4.17 9 3.7875 9.824L3.0675 11.264L2.4 11.656C1.5 12.256 1.0725 12.928 0.99 13.352C0.96 13.504 0.975 13.64 1.0275 13.784L1.05 13.824L1.41 14.072L1.74 14.16C2.3475 14.16 3.0375 13.4 3.9675 11.704L4.1025 11.648C4.875 11.384 5.835 11.2 7.125 11.048C7.8975 11.456 8.805 11.64 9.375 11.64C9.705 11.64 9.93 11.552 10.0575 11.4ZM9.75 10.832L9.8175 10.92C9.81 11 9.7875 11.008 9.75 11.024H9.72L9.5775 11.04C9.2325 11.04 8.7 10.888 8.1525 10.632C8.22 10.552 8.25 10.552 8.325 10.552C9.375 10.552 9.675 10.752 9.75 10.832ZM2.8725 12C2.385 12.952 1.9425 13.48 1.605 13.6C1.6425 13.296 1.98 12.768 2.5125 12.248L2.8725 12ZM5.1375 6.472C4.965 5.752 4.9575 5.168 5.085 4.832L5.1375 4.736L5.25 4.776C5.3775 4.968 5.3925 5.224 5.3175 5.656L5.295 5.784L5.175 6.44L5.1375 6.472Z" fill="#EF5350"/>
</svg>
