<svg width="19" height="12" viewBox="0 0 19 12" fill="none" xmlns="http://www.w3.org/2000/svg">
<path d="M18.924 0.6197C18.8277 0.375469 18.6432 0.181387 18.4112 0.0799613C18.297 0.0287451 18.1744 0.00157922 18.0503 0H13.3017C13.0498 0 12.8082 0.105306 12.6301 0.292752C12.452 0.480198 12.3519 0.734429 12.3519 0.999517C12.3519 1.26461 12.452 1.51884 12.6301 1.70628C12.8082 1.89373 13.0498 1.99903 13.3017 1.99903H15.7614L10.4525 7.58633L7.32788 4.28793C7.23959 4.19424 7.13455 4.11989 7.01882 4.06914C6.90309 4.0184 6.77895 3.99227 6.65358 3.99227C6.5282 3.99227 6.40407 4.0184 6.28834 4.06914C6.1726 4.11989 6.06756 4.19424 5.97928 4.28793L0.280927 10.285C0.191911 10.3779 0.121257 10.4885 0.0730404 10.6103C0.0248241 10.7321 0 10.8627 0 10.9947C0 11.1266 0.0248241 11.2573 0.0730404 11.3791C0.121257 11.5009 0.191911 11.6114 0.280927 11.7043C0.369216 11.798 0.474257 11.8724 0.58999 11.9231C0.705722 11.9739 0.829857 12 0.955231 12C1.08061 12 1.20474 11.9739 1.32047 11.9231C1.43621 11.8724 1.54125 11.798 1.62954 11.7043L6.65358 6.4069L9.77817 9.70531C9.86646 9.79899 9.9715 9.87335 10.0872 9.9241C10.203 9.97484 10.3271 10.001 10.4525 10.001C10.5779 10.001 10.702 9.97484 10.8177 9.9241C10.9335 9.87335 11.0385 9.79899 11.1268 9.70531L17.1006 3.40835V5.9971C17.1006 6.26219 17.2006 6.51642 17.3787 6.70387C17.5568 6.89131 17.7984 6.99662 18.0503 6.99662C18.3022 6.99662 18.5437 6.89131 18.7218 6.70387C18.8999 6.51642 19 6.26219 19 5.9971V0.999517C18.9985 0.868903 18.9727 0.739865 18.924 0.6197Z" fill="url(#paint0_radial_641_15231)"/>
<defs>
<radialGradient id="paint0_radial_641_15231" cx="0" cy="0" r="1" gradientTransform="matrix(-9.5 12 -19 -6 19 0)" gradientUnits="userSpaceOnUse">
<stop stop-color="#FFD26D"/>
<stop offset="1" stop-color="#FFB81A"/>
</radialGradient>
</defs>
</svg>
