<svg width="13" height="16" viewBox="0 0 13 16" fill="none" xmlns="http://www.w3.org/2000/svg">
<path d="M11.19 9.50318C12.19 9.50318 13 10.3132 13 11.3131V12.0021H12.995C12.961 12.7821 12.747 13.7591 11.872 14.557C10.916 15.43 9.265 16 6.5 16C3.734 16 2.084 15.43 1.128 14.557C0.253 13.7591 0.0390001 12.7811 0.00500011 12.0021H0V11.3121C0 10.3132 0.81 9.50318 1.81 9.50318H11.19ZM3 1.00041C2.60218 1.00041 2.22064 1.15844 1.93934 1.43974C1.65804 1.72103 1.5 2.10255 1.5 2.50037V6.50026C1.5 6.89807 1.65804 7.27959 1.93934 7.56089C2.22064 7.84219 2.60218 8.00022 3 8.00022H10C10.3978 8.00022 10.7794 7.84219 11.0607 7.56089C11.342 7.27959 11.5 6.89807 11.5 6.50026V2.50037C11.5 2.10255 11.342 1.72103 11.0607 1.43974C10.7794 1.15844 10.3978 1.00041 10 1.00041H7V0.500422C7.00283 0.434007 6.99183 0.367729 6.96771 0.305787C6.94358 0.243845 6.90685 0.18759 6.85985 0.140585C6.81284 0.0935805 6.75658 0.0568518 6.69464 0.0327265C6.6327 0.00860115 6.56642 -0.00239483 6.5 0.000435209C6.224 0.000435209 6 0.230429 6 0.500422V1.00041H3ZM3.5 4.50031C3.5 4.2351 3.60536 3.98076 3.79289 3.79323C3.98043 3.60569 4.23478 3.50034 4.5 3.50034C4.76522 3.50034 5.01957 3.60569 5.20711 3.79323C5.39464 3.98076 5.5 4.2351 5.5 4.50031C5.5 4.76552 5.39464 5.01987 5.20711 5.2074C5.01957 5.39493 4.76522 5.50029 4.5 5.50029C4.23478 5.50029 3.98043 5.39493 3.79289 5.2074C3.60536 5.01987 3.5 4.76552 3.5 4.50031ZM7.5 4.50031C7.5 4.2351 7.60536 3.98076 7.79289 3.79323C7.98043 3.60569 8.23478 3.50034 8.5 3.50034C8.76522 3.50034 9.01957 3.60569 9.20711 3.79323C9.39464 3.98076 9.5 4.2351 9.5 4.50031C9.5 4.76552 9.39464 5.01987 9.20711 5.2074C9.01957 5.39493 8.76522 5.50029 8.5 5.50029C8.23478 5.50029 7.98043 5.39493 7.79289 5.2074C7.60536 5.01987 7.5 4.76552 7.5 4.50031Z" fill="url(#paint0_radial_641_15441)"/>
<defs>
<radialGradient id="paint0_radial_641_15441" cx="0" cy="0" r="1" gradientTransform="matrix(32.6358 27.8 -1.28813 40.1672 6.67463 0.9)" gradientUnits="userSpaceOnUse">
<stop stop-color="#FFB000"/>
<stop offset="1" stop-color="#FFD069"/>
</radialGradient>
</defs>
</svg>
