<svg width="16" height="16" viewBox="0 0 16 16" fill="none" xmlns="http://www.w3.org/2000/svg">
<path d="M0.0397648 7.60667C0.521963 2.392 5.50513 0 8.26055 0C11.9335 0 15.7401 2.93467 15.9702 8C16.3628 12.4013 12.8263 16 8.26055 16C3.69482 16 -0.452077 12.936 0.0397648 7.60667Z" fill="#1851ED"/>
<path opacity="0.77" d="M15.3721 6.64934C15.1475 5.916 14.4931 5.168 13.6555 5.19467C12.7241 5.26667 12.0201 5.904 11.2831 6.392C9.08561 7.844 6.56165 8.83067 3.93987 9.26534C3.36399 9.36134 1.47377 9.65734 1.22854 10.7107C1.06597 11.4093 1.35529 12.28 1.92015 12.82C3.1408 13.9853 4.12862 14.4507 4.68659 14.6347C4.85605 14.6907 5.00071 14.5067 4.90289 14.3627C4.73343 14.1147 4.55846 13.8253 4.59704 13.7373C4.82711 13.216 6.09598 13.9987 6.84546 14.1267C8.53177 14.4133 9.17929 14.1347 10.2939 13.8013C10.608 13.708 11.1976 13.44 11.4787 13.5893C11.8052 13.7627 11.1439 14.4747 10.7154 14.888C10.619 14.9813 10.7223 15.1347 10.8505 15.0907C12.1469 14.6427 14.9271 12.6733 15.4575 9.456C15.6077 8.56134 15.6683 7.53334 15.3721 6.64934Z" fill="#002691"/>
<path d="M3.46777 8.12267C3.46777 5.62001 5.65282 3.16801 7.89297 3.16801C10.1331 3.16801 12.1515 5.23467 12.5083 8.12267C12.8169 10.624 10.3494 13.108 7.51686 12.8067C4.64709 12.5013 3.46777 10.6267 3.46777 8.12267Z" fill="#F5F5F5"/>
<path d="M8.00039 10.7573C9.51912 10.7573 10.7503 9.52283 10.7503 7.99999C10.7503 6.47716 9.51912 5.24266 8.00039 5.24266C6.48166 5.24266 5.25049 6.47716 5.25049 7.99999C5.25049 9.52283 6.48166 10.7573 8.00039 10.7573Z" fill="#5AC7F0"/>
<path d="M9.05763 8.49641C9.36213 7.88967 9.13571 7.17534 8.55189 6.90091C7.96807 6.62648 7.24795 6.89587 6.94344 7.50262C6.63894 8.10936 6.86537 8.82369 7.44918 9.09812C8.033 9.37254 8.75312 9.10315 9.05763 8.49641Z" fill="#212121"/>
</svg>
