<svg width="16" height="16" viewBox="0 0 16 16" fill="none" xmlns="http://www.w3.org/2000/svg">
<path d="M15.1978 7.14547V4.75615C15.1978 4.33014 15.0293 3.92158 14.7293 3.62035C14.4293 3.31912 14.0223 3.14988 13.5981 3.14988H8.79875V2.09618C9.04271 1.87612 9.19869 1.55968 9.19869 1.2047C9.19869 0.885192 9.07228 0.578773 8.84727 0.352848C8.62226 0.126923 8.31708 0 7.99886 0C7.68065 0 7.37547 0.126923 7.15045 0.352848C6.92544 0.578773 6.79903 0.885192 6.79903 1.2047C6.79903 1.55968 6.95501 1.87612 7.19898 2.09618V3.14988H2.39966C1.97537 3.14988 1.56846 3.31912 1.26845 3.62035C0.968433 3.92158 0.799886 4.33014 0.799886 4.75615V7.16394L0.742294 7.16795C0.540701 7.18257 0.352091 7.27326 0.214383 7.42181C0.076676 7.57036 8.17845e-05 7.76574 0 7.96868V9.57494C0 9.78795 0.0842734 9.99223 0.234281 10.1428C0.384289 10.2935 0.587743 10.3781 0.799886 10.3781V14.3937C0.799886 14.8197 0.968433 15.2283 1.26845 15.5295C1.56846 15.8308 1.97537 16 2.39966 16H13.5981C14.0223 16 14.4293 15.8308 14.7293 15.5295C15.0293 15.2283 15.1978 14.8197 15.1978 14.3937V10.3781C15.41 10.3781 15.6134 10.2935 15.7634 10.1428C15.9134 9.99223 15.9977 9.78795 15.9977 9.57494V8.01847C16.0071 7.89382 15.9874 7.76869 15.9401 7.65305C15.7786 7.26112 15.4322 7.16715 15.1978 7.14547ZM3.99943 7.96868C3.99943 7.08202 4.53695 6.36241 5.19926 6.36241C5.86157 6.36241 6.39909 7.08202 6.39909 7.96868C6.39909 8.85534 5.86157 9.57494 5.19926 9.57494C4.53695 9.57494 3.99943 8.85534 3.99943 7.96868ZM11.1968 12.7875C10.3961 12.7851 4.79932 12.7875 4.79932 12.7875V11.1812C4.79932 11.1812 10.3993 11.1796 11.2 11.1812L11.1968 12.7875ZM10.7985 9.57494C10.1362 9.57494 9.59863 8.85534 9.59863 7.96868C9.59863 7.08202 10.1362 6.36241 10.7985 6.36241C11.4608 6.36241 11.9983 7.08202 11.9983 7.96868C11.9983 8.85534 11.4608 9.57494 10.7985 9.57494Z" fill="url(#paint0_radial_641_15078)"/>
<defs>
<radialGradient id="paint0_radial_641_15078" cx="0" cy="0" r="1" gradientUnits="userSpaceOnUse" gradientTransform="translate(16) rotate(116.565) scale(17.8885)">
<stop stop-color="#FFD26D"/>
<stop offset="1" stop-color="#FFB81A"/>
</radialGradient>
</defs>
</svg>
