<svg width="19" height="24" viewBox="0 0 19 24" fill="none" xmlns="http://www.w3.org/2000/svg">
<path d="M17.1949 10.9336C16.8828 10.5336 16.5029 10.187 16.1501 9.84028C15.241 9.04026 14.2097 8.46691 13.3413 7.62688C11.3196 5.68016 10.8718 2.46674 12.1608 0C10.8718 0.306675 9.74556 1.00003 8.78217 1.76005C5.26781 4.53346 3.88378 9.42694 5.53919 13.6271C5.59347 13.7604 5.64774 13.8937 5.64774 14.0671C5.64774 14.3604 5.44421 14.6271 5.17283 14.7338C4.86074 14.8671 4.53509 14.7871 4.27728 14.5737C4.20027 14.5104 4.13586 14.4335 4.08731 14.3471C2.55402 12.4404 2.30978 9.70694 3.34102 7.52021C1.07501 9.3336 -0.159765 12.4004 0.0166311 15.2938C0.0980448 15.9605 0.179458 16.6271 0.41013 17.2938C0.600096 18.0938 0.966457 18.8939 1.37353 19.6006C2.83897 21.9073 5.37636 23.5607 8.10372 23.894C11.0075 24.254 14.1148 23.734 16.3401 21.7606C18.8232 19.5472 19.6916 16.0005 18.4161 12.9604L18.2397 12.6137C17.9548 12.0003 17.1949 10.9336 17.1949 10.9336ZM12.9071 19.3339C12.5272 19.6539 11.903 20.0006 11.4145 20.1339C9.89482 20.6673 8.3751 19.9206 7.47955 19.0405C9.09425 18.6672 10.0576 17.4938 10.3426 16.3071C10.5733 15.2404 10.1391 14.3604 9.96267 13.3337C9.79984 12.347 9.82698 11.507 10.1933 10.587C10.4511 11.0936 10.7225 11.6003 11.0482 12.0003C12.093 13.3337 13.7348 13.9204 14.0876 15.7338C14.1419 15.9205 14.169 16.1071 14.169 16.3071C14.2097 17.4005 13.7213 18.6005 12.9071 19.3339Z" fill="url(#paint0_radial_523_851)"/>
<defs>
<radialGradient id="paint0_radial_523_851" cx="0" cy="0" r="1" gradientTransform="matrix(-9.5 24 -19 -12 19 0)" gradientUnits="userSpaceOnUse">
<stop stop-color="#FFD26D"/>
<stop offset="1" stop-color="#FFB81A"/>
</radialGradient>
</defs>
</svg>
