<svg width="20" height="16" viewBox="0 0 20 16" fill="none" xmlns="http://www.w3.org/2000/svg">
<path fill-rule="evenodd" clip-rule="evenodd" d="M1.172 1.172C-1.19209e-07 2.343 0 4.229 0 8C0 11.771 -1.19209e-07 13.657 1.172 14.828C2.344 15.999 4.229 16 8 16H12C15.771 16 17.657 16 18.828 14.828C19.999 13.656 20 11.771 20 8C20 4.229 20 2.343 18.828 1.172C17.656 0.000999928 15.771 0 12 0H8C4.229 0 2.343 -1.19209e-07 1.172 1.172ZM16.576 3.52C16.7032 3.67279 16.7646 3.86985 16.7466 4.06787C16.7286 4.26589 16.6327 4.44866 16.48 4.576L14.284 6.406C13.397 7.146 12.679 7.744 12.044 8.152C11.384 8.577 10.741 8.845 10 8.845C9.259 8.845 8.616 8.576 7.955 8.152C7.321 7.744 6.603 7.145 5.716 6.407L3.52 4.577C3.3671 4.4497 3.27104 4.26687 3.25294 4.06874C3.23484 3.8706 3.2962 3.6734 3.4235 3.5205C3.5508 3.3676 3.73363 3.27154 3.93176 3.25344C4.1299 3.23534 4.3271 3.2967 4.48 3.424L6.64 5.223C7.573 6 8.22 6.538 8.768 6.89C9.297 7.23 9.656 7.345 10.001 7.345C10.346 7.345 10.705 7.231 11.234 6.89C11.781 6.538 12.429 6 13.362 5.223L15.521 3.423C15.6739 3.29587 15.8711 3.23467 16.0691 3.25286C16.2671 3.27105 16.4488 3.36714 16.576 3.52Z" fill="url(#paint0_radial_523_943)"/>
<defs>
<radialGradient id="paint0_radial_523_943" cx="0" cy="0" r="1" gradientTransform="matrix(-10 16 -20 -8 20 0)" gradientUnits="userSpaceOnUse">
<stop stop-color="#FFD26D"/>
<stop offset="1" stop-color="#FFB81A"/>
</radialGradient>
</defs>
</svg>
