<svg width="16" height="16" viewBox="0 0 16 16" fill="none" xmlns="http://www.w3.org/2000/svg">
<path d="M8 0C12.4184 0 16 3.5816 16 8C16 12.4184 12.4184 16 8 16C3.5816 16 0 12.4184 0 8C0 3.5816 3.5816 0 8 0ZM8 11.2C7.78783 11.2 7.58434 11.2843 7.43431 11.4343C7.28429 11.5843 7.2 11.7878 7.2 12C7.2 12.2122 7.28429 12.4157 7.43431 12.5657C7.58434 12.7157 7.78783 12.8 8 12.8C8.21217 12.8 8.41566 12.7157 8.56569 12.5657C8.71571 12.4157 8.8 12.2122 8.8 12C8.8 11.7878 8.71571 11.5843 8.56569 11.4343C8.41566 11.2843 8.21217 11.2 8 11.2ZM8 3.6C7.23087 3.6 6.49325 3.90553 5.94939 4.44939C5.40554 4.99325 5.1 5.73087 5.1 6.5C5.1 6.71217 5.18429 6.91566 5.33431 7.06569C5.48434 7.21571 5.68783 7.3 5.9 7.3C6.11217 7.3 6.31566 7.21571 6.46569 7.06569C6.61571 6.91566 6.7 6.71217 6.7 6.5C6.70026 6.26403 6.76475 6.03258 6.88655 5.83047C7.00834 5.62836 7.18285 5.46321 7.39136 5.35274C7.59988 5.24226 7.83453 5.19062 8.07015 5.20335C8.30578 5.21609 8.5335 5.29271 8.72889 5.42502C8.92428 5.55732 9.07997 5.74032 9.17928 5.95438C9.27858 6.16843 9.31775 6.40549 9.29258 6.64011C9.26742 6.87474 9.17886 7.09809 9.03642 7.28621C8.89397 7.47434 8.70301 7.62015 8.484 7.708C7.9432 7.924 7.2 8.4776 7.2 9.4V9.6C7.2 9.81217 7.28429 10.0157 7.43431 10.1657C7.58434 10.3157 7.78783 10.4 8 10.4C8.21217 10.4 8.41566 10.3157 8.56569 10.1657C8.71571 10.0157 8.8 9.81217 8.8 9.6C8.8 9.4048 8.84 9.3072 9.0088 9.224L9.0784 9.192C9.70305 8.94071 10.2208 8.47996 10.543 7.88873C10.8651 7.29751 10.9716 6.61263 10.8441 5.95151C10.7166 5.29039 10.3631 4.69421 9.8442 4.26518C9.32529 3.83614 8.6733 3.60098 8 3.6Z" fill="#6A7080"/>
</svg>
