<svg width="24" height="23" viewBox="0 0 24 23" fill="none" xmlns="http://www.w3.org/2000/svg">
<path d="M11.9994 19.2682L6.18253 22.7843C5.92556 22.9484 5.65691 23.0187 5.37658 22.9953C5.09625 22.9719 4.85096 22.8781 4.64071 22.714C4.43046 22.5499 4.26693 22.3451 4.15013 22.0994C4.03332 21.8537 4.00996 21.5781 4.08005 21.2724L5.62187 14.627L0.470782 10.1615C0.237173 9.95056 0.0914008 9.71006 0.0334656 9.44003C-0.0244695 9.16999 -0.00718245 8.90652 0.0853268 8.64961C0.177836 8.3927 0.318002 8.18173 0.505824 8.01671C0.693645 7.85169 0.950616 7.7462 1.27673 7.70026L8.07477 7.10252L10.7029 0.843864C10.8197 0.562576 11.001 0.35161 11.2467 0.210966C11.4925 0.0703218 11.7434 0 11.9994 0C12.2554 0 12.5063 0.0703218 12.7521 0.210966C12.9978 0.35161 13.1791 0.562576 13.2959 0.843864L15.924 7.10252L22.7221 7.70026C23.0491 7.74714 23.3061 7.85262 23.493 8.01671C23.6799 8.18079 23.82 8.39176 23.9135 8.64961C24.0069 8.90745 24.0247 9.1714 23.9667 9.44143C23.9088 9.71147 23.7626 9.9515 23.528 10.1615L18.3769 14.627L19.9188 21.2724C19.9888 21.5771 19.9655 21.8528 19.8487 22.0994C19.7319 22.346 19.5683 22.5509 19.3581 22.714C19.1478 22.8772 18.9026 22.9709 18.6222 22.9953C18.3419 23.0197 18.0732 22.9493 17.8163 22.7843L11.9994 19.2682Z" fill="url(#paint0_radial_641_15464)"/>
<defs>
<radialGradient id="paint0_radial_641_15464" cx="0" cy="0" r="1" gradientTransform="matrix(-12 23 -24 -11.5 24 0)" gradientUnits="userSpaceOnUse">
<stop stop-color="#FFD26D"/>
<stop offset="1" stop-color="#FFB81A"/>
</radialGradient>
</defs>
</svg>
