<svg width="16" height="16" viewBox="0 0 16 16" fill="none" xmlns="http://www.w3.org/2000/svg">
<path fill-rule="evenodd" clip-rule="evenodd" d="M8.0416 0H7.9584C7.2392 0 6.64 3.44702e-08 6.1648 0.0616868C5.6624 0.126458 5.2088 0.26988 4.8448 0.620723C4.48 0.972337 4.3312 1.40954 4.264 1.89301C4.2184 2.22227 4.2048 3.008 4.2016 3.68193C2.584 3.73359 1.612 3.91557 0.9376 4.56636C-9.53674e-08 5.4693 0 6.92357 0 9.83132C0 12.7391 -9.53674e-08 14.1933 0.9376 15.0963C1.8752 15.9992 3.3832 16 6.4 16H9.6C12.6168 16 14.1256 16 15.0624 15.0963C15.9992 14.1926 16 12.7391 16 9.83132C16 6.92357 16 5.4693 15.0624 4.56636C14.388 3.91557 13.416 3.73359 11.7984 3.6827C11.7952 3.008 11.7824 2.22227 11.736 1.89378C11.6688 1.40954 11.52 0.972337 11.1552 0.621494C10.7912 0.269879 10.3376 0.126458 9.8352 0.0616868C9.36 3.44702e-08 8.76 0 8.0416 0ZM10.5984 3.66419C10.5944 3.01108 10.5832 2.30863 10.5472 2.04723C10.4968 1.69176 10.4112 1.53908 10.3072 1.43884C10.2032 1.3386 10.0448 1.2561 9.6752 1.20752C9.2896 1.15817 8.7712 1.15663 8 1.15663C7.2288 1.15663 6.7104 1.15817 6.324 1.20829C5.9552 1.2561 5.7968 1.3386 5.6928 1.43961C5.5888 1.54063 5.5032 1.69176 5.4528 2.04723C5.4168 2.3094 5.4048 3.01108 5.4016 3.66419C5.7152 3.66265 6.048 3.66214 6.4 3.66265H9.6C9.95307 3.66265 10.2859 3.66316 10.5984 3.66419ZM8 6.16867C8.15913 6.16867 8.31174 6.2296 8.42426 6.33806C8.53679 6.44651 8.6 6.59361 8.6 6.74699V6.7547C9.4712 6.96598 10.2 7.62834 10.2 8.54593C10.2 8.69931 10.1368 8.8464 10.0243 8.95486C9.91174 9.06331 9.75913 9.12424 9.6 9.12424C9.44087 9.12424 9.28826 9.06331 9.17574 8.95486C9.06321 8.8464 9 8.69931 9 8.54593C9 8.24983 8.6592 7.83961 8 7.83961C7.3408 7.83961 7 8.24983 7 8.54593C7 8.84202 7.3408 9.25301 8 9.25301C9.108 9.25301 10.2 9.99325 10.2 11.1167C10.2 12.0343 9.4712 12.6959 8.6 12.908V12.9157C8.6 13.069 8.53679 13.2161 8.42426 13.3246C8.31174 13.433 8.15913 13.494 8 13.494C7.84087 13.494 7.68826 13.433 7.57574 13.3246C7.46321 13.2161 7.4 13.069 7.4 12.9157V12.908C6.5288 12.6967 5.8 12.0343 5.8 11.1167C5.8 10.9633 5.86321 10.8162 5.97574 10.7078C6.08826 10.5993 6.24087 10.5384 6.4 10.5384C6.55913 10.5384 6.71174 10.5993 6.82426 10.7078C6.93679 10.8162 7 10.9633 7 11.1167C7 11.4128 7.3408 11.823 8 11.823C8.6592 11.823 9 11.4128 9 11.1167C9 10.8206 8.6592 10.4096 8 10.4096C6.892 10.4096 5.8 9.6694 5.8 8.54593C5.8 7.62834 6.5288 6.96598 7.4 6.7547V6.74699C7.4 6.59361 7.46321 6.44651 7.57574 6.33806C7.68826 6.2296 7.84087 6.16867 8 6.16867Z" fill="url(#paint0_radial_641_17619)"/>
<defs>
<radialGradient id="paint0_radial_641_17619" cx="0" cy="0" r="1" gradientUnits="userSpaceOnUse" gradientTransform="translate(16) rotate(116.565) scale(17.8885)">
<stop stop-color="#FFD26D"/>
<stop offset="1" stop-color="#FFB81A"/>
</radialGradient>
</defs>
</svg>
